<mxfile host="app.diagrams.net" modified="2022-08-08T02:31:35.596Z" agent="5.0 (X11; Linux x86_64) AppleWebKit/537.36 (KHTML, like Gecko) Chrome/103.0.0.0 Safari/537.36" etag="6_0PN3Z3ppO6EdfTcSxS" version="20.2.3" type="github">
  <diagram id="rbgyibeUeegNXXcG7erH" name="第 1 页">
    <mxGraphModel dx="1422" dy="773" grid="1" gridSize="10" guides="1" tooltips="1" connect="1" arrows="1" fold="1" page="1" pageScale="1" pageWidth="827" pageHeight="1169" math="0" shadow="0">
      <root>
        <mxCell id="0" />
        <mxCell id="1" parent="0" />
        <mxCell id="Hfo0vMJ8T5oNA8iLAP-b-1" value="开始" style="rounded=1;whiteSpace=wrap;html=1;" parent="1" vertex="1">
          <mxGeometry x="320" y="20" width="120" height="60" as="geometry" />
        </mxCell>
      </root>
    </mxGraphModel>
  </diagram>
</mxfile>
